<?xml version="1.0" standalone="no"?>
<!DOCTYPE svg PUBLIC "-//W3C//DTD SVG 20010904//EN"
 "http://www.w3.org/TR/2001/REC-SVG-20010904/DTD/svg10.dtd">
<svg version="1.0" xmlns="http://www.w3.org/2000/svg"
 width="143.000000pt" height="143.000000pt" viewBox="0 0 143.000000 143.000000"
 preserveAspectRatio="xMidYMid meet">

<g transform="translate(0.000000,143.000000) scale(0.100000,-0.100000)"
fill="#000000" stroke="none">
<path d="M680 1421 c-197 -63 -535 -374 -643 -591 -42 -84 -41 -133 2 -219 31
-62 112 -184 130 -195 12 -8 233 344 376 599 145 259 161 283 197 301 36 18
84 11 116 -19 17 -16 22 -32 22 -68 0 -31 19 -102 56 -211 110 -320 183 -487
261 -593 l36 -49 35 39 c55 64 129 181 147 235 11 32 14 62 10 82 -22 101
-142 275 -295 428 -193 193 -360 290 -450 261z"/>
<path d="M645 854 c-54 -102 -95 -187 -94 -188 6 -5 287 48 294 56 7 6 -92
318 -100 318 -2 0 -47 -84 -100 -186z"/>
<path d="M805 550 c-55 -9 -149 -29 -208 -45 -59 -15 -119 -25 -133 -22 -21 4
-28 -2 -46 -37 -11 -22 -40 -72 -64 -109 -24 -37 -44 -71 -44 -76 0 -11 151
-139 218 -183 79 -53 157 -81 202 -73 73 14 215 99 320 192 l44 40 -31 39
c-38 49 -95 151 -123 224 -12 30 -24 58 -28 61 -4 4 -52 -1 -107 -11z"/>
</g>
</svg>
